<?xml version="1.0" standalone="no"?>
<!DOCTYPE svg PUBLIC "-//W3C//DTD SVG 20010904//EN"
 "http://www.w3.org/TR/2001/REC-SVG-20010904/DTD/svg10.dtd">
<svg version="1.0" xmlns="http://www.w3.org/2000/svg"
 width="128.000000pt" height="128.000000pt" viewBox="0 0 128.000000 128.000000"
 preserveAspectRatio="xMidYMid meet">
<metadata>
Created by potrace 1.14, written by Peter Selinger 2001-2017
</metadata>
<g transform="translate(0.000000,128.000000) scale(0.100000,-0.100000)"
fill="#000000" stroke="none">
<path d="M506 1263 c-414 -85 -631 -562 -424 -932 39 -71 42 -74 121 -152 78
-77 195 -142 298 -163 57 -12 220 -14 259 -4 8 3 30 8 49 12 90 21 232 106
297 178 78 86 148 224 162 317 4 25 7 89 6 141 -1 166 -61 306 -184 430 -155
155 -367 218 -584 173z"/>
</g>
</svg>
